<svg width="62" height="62" viewBox="0 0 62 62" fill="none" xmlns="http://www.w3.org/2000/svg">
<circle cx="31" cy="31" r="31" fill="#F2F9EF"/>
<g clip-path="url(#clip0_295_4916)">
<path d="M24.3333 33.6667C24.3333 34.0203 24.1929 34.3594 23.9428 34.6095C23.6928 34.8595 23.3536 35 23 35H21.6667C21.313 35 20.9739 34.8595 20.7239 34.6095C20.4738 34.3594 20.3333 34.0203 20.3333 33.6667C20.3333 33.313 20.4738 32.9739 20.7239 32.7239C20.9739 32.4738 21.313 32.3333 21.6667 32.3333H23C23.3536 32.3333 23.6928 32.4738 23.9428 32.7239C24.1929 32.9739 24.3333 33.313 24.3333 33.6667ZM29.6667 32.3333H28.3333C27.9797 32.3333 27.6406 32.4738 27.3905 32.7239C27.1405 32.9739 27 33.313 27 33.6667C27 34.0203 27.1405 34.3594 27.3905 34.6095C27.6406 34.8595 27.9797 35 28.3333 35H29.6667C30.0203 35 30.3594 34.8595 30.6095 34.6095C30.8595 34.3594 31 34.0203 31 33.6667C31 33.313 30.8595 32.9739 30.6095 32.7239C30.3594 32.4738 30.0203 32.3333 29.6667 32.3333ZM23 37.6667H21.6667C21.313 37.6667 20.9739 37.8071 20.7239 38.0572C20.4738 38.3072 20.3333 38.6464 20.3333 39C20.3333 39.3536 20.4738 39.6928 20.7239 39.9428C20.9739 40.1929 21.313 40.3333 21.6667 40.3333H23C23.3536 40.3333 23.6928 40.1929 23.9428 39.9428C24.1929 39.6928 24.3333 39.3536 24.3333 39C24.3333 38.6464 24.1929 38.3072 23.9428 38.0572C23.6928 37.8071 23.3536 37.6667 23 37.6667ZM29.6667 37.6667H28.3333C27.9797 37.6667 27.6406 37.8071 27.3905 38.0572C27.1405 38.3072 27 38.6464 27 39C27 39.3536 27.1405 39.6928 27.3905 39.9428C27.6406 40.1929 27.9797 40.3333 28.3333 40.3333H29.6667C30.0203 40.3333 30.3594 40.1929 30.6095 39.9428C30.8595 39.6928 31 39.3536 31 39C31 38.6464 30.8595 38.3072 30.6095 38.0572C30.3594 37.8071 30.0203 37.6667 29.6667 37.6667ZM23 21.6667H21.6667C21.313 21.6667 20.9739 21.8071 20.7239 22.0572C20.4738 22.3072 20.3333 22.6464 20.3333 23C20.3333 23.3536 20.4738 23.6928 20.7239 23.9428C20.9739 24.1929 21.313 24.3333 21.6667 24.3333H23C23.3536 24.3333 23.6928 24.1929 23.9428 23.9428C24.1929 23.6928 24.3333 23.3536 24.3333 23C24.3333 22.6464 24.1929 22.3072 23.9428 22.0572C23.6928 21.8071 23.3536 21.6667 23 21.6667ZM29.6667 21.6667H28.3333C27.9797 21.6667 27.6406 21.8071 27.3905 22.0572C27.1405 22.3072 27 22.6464 27 23C27 23.3536 27.1405 23.6928 27.3905 23.9428C27.6406 24.1929 27.9797 24.3333 28.3333 24.3333H29.6667C30.0203 24.3333 30.3594 24.1929 30.6095 23.9428C30.8595 23.6928 31 23.3536 31 23C31 22.6464 30.8595 22.3072 30.6095 22.0572C30.3594 21.8071 30.0203 21.6667 29.6667 21.6667ZM23 27H21.6667C21.313 27 20.9739 27.1405 20.7239 27.3905C20.4738 27.6406 20.3333 27.9797 20.3333 28.3333C20.3333 28.687 20.4738 29.0261 20.7239 29.2761C20.9739 29.5262 21.313 29.6667 21.6667 29.6667H23C23.3536 29.6667 23.6928 29.5262 23.9428 29.2761C24.1929 29.0261 24.3333 28.687 24.3333 28.3333C24.3333 27.9797 24.1929 27.6406 23.9428 27.3905C23.6928 27.1405 23.3536 27 23 27ZM29.6667 27H28.3333C27.9797 27 27.6406 27.1405 27.3905 27.3905C27.1405 27.6406 27 27.9797 27 28.3333C27 28.687 27.1405 29.0261 27.3905 29.2761C27.6406 29.5262 27.9797 29.6667 28.3333 29.6667H29.6667C30.0203 29.6667 30.3594 29.5262 30.6095 29.2761C30.8595 29.0261 31 28.687 31 28.3333C31 27.9797 30.8595 27.6406 30.6095 27.3905C30.3594 27.1405 30.0203 27 29.6667 27ZM47 28.3333V40.3333C46.9979 42.1008 46.2948 43.7953 45.045 45.045C43.7953 46.2948 42.1008 46.9979 40.3333 47H21.6667C19.8992 46.9979 18.2047 46.2948 16.955 45.045C15.7052 43.7953 15.0021 42.1008 15 40.3333V21.6667C15.0021 19.8992 15.7052 18.2047 16.955 16.955C18.2047 15.7052 19.8992 15.0021 21.6667 15H29.6667C31.4341 15.0021 33.1286 15.7052 34.3784 16.955C35.6282 18.2047 36.3312 19.8992 36.3333 21.6667H40.3333C42.1008 21.6688 43.7953 22.3718 45.045 23.6216C46.2948 24.8714 46.9979 26.5659 47 28.3333ZM21.6667 44.3333H33.6667V21.6667C33.6667 20.6058 33.2452 19.5884 32.4951 18.8382C31.7449 18.0881 30.7275 17.6667 29.6667 17.6667H21.6667C20.6058 17.6667 19.5884 18.0881 18.8382 18.8382C18.0881 19.5884 17.6667 20.6058 17.6667 21.6667V40.3333C17.6667 41.3942 18.0881 42.4116 18.8382 43.1618C19.5884 43.9119 20.6058 44.3333 21.6667 44.3333ZM44.3333 28.3333C44.3333 27.2725 43.9119 26.2551 43.1618 25.5049C42.4116 24.7548 41.3942 24.3333 40.3333 24.3333H36.3333V44.3333H40.3333C41.3942 44.3333 42.4116 43.9119 43.1618 43.1618C43.9119 42.4116 44.3333 41.3942 44.3333 40.3333V28.3333ZM40.3333 32.3333C40.0696 32.3333 39.8118 32.4115 39.5926 32.558C39.3733 32.7045 39.2024 32.9128 39.1015 33.1564C39.0006 33.4001 38.9742 33.6681 39.0256 33.9268C39.0771 34.1854 39.2041 34.423 39.3905 34.6095C39.577 34.7959 39.8146 34.9229 40.0732 34.9744C40.3319 35.0258 40.5999 34.9994 40.8436 34.8985C41.0872 34.7976 41.2955 34.6267 41.442 34.4074C41.5885 34.1882 41.6667 33.9304 41.6667 33.6667C41.6667 33.313 41.5262 32.9739 41.2761 32.7239C41.0261 32.4738 40.687 32.3333 40.3333 32.3333ZM40.3333 37.6667C40.0696 37.6667 39.8118 37.7449 39.5926 37.8914C39.3733 38.0379 39.2024 38.2461 39.1015 38.4898C39.0006 38.7334 38.9742 39.0015 39.0256 39.2601C39.0771 39.5188 39.2041 39.7563 39.3905 39.9428C39.577 40.1293 39.8146 40.2563 40.0732 40.3077C40.3319 40.3592 40.5999 40.3328 40.8436 40.2318C41.0872 40.1309 41.2955 39.96 41.442 39.7408C41.5885 39.5215 41.6667 39.2637 41.6667 39C41.6667 38.6464 41.5262 38.3072 41.2761 38.0572C41.0261 37.8071 40.687 37.6667 40.3333 37.6667ZM40.3333 27C40.0696 27 39.8118 27.0782 39.5926 27.2247C39.3733 27.3712 39.2024 27.5795 39.1015 27.8231C39.0006 28.0667 38.9742 28.3348 39.0256 28.5935C39.0771 28.8521 39.2041 29.0897 39.3905 29.2761C39.577 29.4626 39.8146 29.5896 40.0732 29.641C40.3319 29.6925 40.5999 29.6661 40.8436 29.5652C41.0872 29.4643 41.2955 29.2934 41.442 29.0741C41.5885 28.8548 41.6667 28.597 41.6667 28.3333C41.6667 27.9797 41.5262 27.6406 41.2761 27.3905C41.0261 27.1405 40.687 27 40.3333 27Z" fill="#3D7F74"/>
</g>
<defs>
<clipPath id="clip0_295_4916">
<rect width="32" height="32" fill="white" transform="translate(15 15)"/>
</clipPath>
</defs>
</svg>
