<svg width="62" height="62" viewBox="0 0 62 62" fill="none" xmlns="http://www.w3.org/2000/svg">
<circle cx="31" cy="31" r="31" fill="#F2F9EF"/>
<path d="M42.05 17.7688H19.95C17.2625 17.7688 15.0812 19.95 15.0812 22.6376V39.3626C15.0812 42.0501 17.2625 44.2313 19.95 44.2313H42.05C44.7375 44.2313 46.9187 42.0501 46.9187 39.3626V22.6376C46.9187 19.95 44.7375 17.7688 42.05 17.7688ZM44.35 39.3626C44.35 40.6313 43.3187 41.6626 42.05 41.6626H19.95C18.6812 41.6626 17.65 40.6313 17.65 39.3626V22.6376C17.65 21.3688 18.6812 20.3376 19.95 20.3376H42.05C43.3187 20.3376 44.35 21.3688 44.35 22.6376V26.1313H38.1687C35.4812 26.1313 33.3 28.3126 33.3 31.0001C33.3 33.6876 35.4875 35.8688 38.1687 35.8688H44.35V39.3626ZM44.35 33.3001H38.1687C36.9 33.3001 35.8687 32.2688 35.8687 31.0001C35.8687 29.7313 36.9 28.7001 38.1687 28.7001H44.35V33.3001Z" fill="#3D7F74"/>
<path d="M39.6124 30.075H38.3812C37.8687 30.075 37.4562 30.4875 37.4562 31C37.4562 31.5125 37.8687 31.925 38.3812 31.925H39.6124C40.1249 31.925 40.5374 31.5125 40.5374 31C40.5374 30.4875 40.1249 30.075 39.6124 30.075Z" fill="#3D7F74"/>
</svg>
