<svg width="67" height="41" viewBox="0 0 67 41" fill="none" xmlns="http://www.w3.org/2000/svg">
<path d="M7.60082 37.3488V9.30233V7H2V40H58V37.3488H7.60082Z" fill="#EAEAEA"/>
<path d="M6.786 1.68014L6.786 5.53483L2.05967 5.53483C0.922558 5.53483 -1.57251e-06 6.28739 -1.53049e-06 7.21497L-7.61117e-08 39.3199C-3.40587e-08 40.2482 0.92256 41 2.05967 41L58.2014 41C59.3385 41 60.2611 40.2482 60.2611 39.3199C60.2611 38.3923 59.3385 38.6334 58.2014 38.6334L2.90115 38.6334L2.90115 7.90139L57.3137 7.90139L57.3137 39.3199C57.3137 40.2482 57.0172 41 58.1552 41C59.2923 41 60.2149 40.2482 60.2149 39.3199L60.2149 35.2807L64.9403 35.2807C66.0783 35.2807 67 34.5281 67 33.6005L67 1.68014C67 0.751836 66.0783 1.02767e-06 64.9403 1.07567e-06L8.84567 3.44161e-06C7.70766 3.48961e-06 6.786 0.751838 6.786 1.68014ZM64.0988 2.36657L64.0988 32.9141L60.2149 32.9141L60.2149 7.21496C60.2149 6.28739 59.2923 5.53483 58.1552 5.53483L9.68715 5.53483L9.68715 2.36657L64.0988 2.36657Z" fill="#999999"/>
<path d="M39.8331 22.5102C39.8331 17.4746 35.7507 13.3922 30.7151 13.3922C25.6787 13.3929 21.5971 17.4746 21.5971 22.5109C21.5971 27.5465 25.6794 31.6289 30.7151 31.6282C35.7485 31.623 39.8272 27.5436 39.8331 22.5102ZM24.9786 22.5102C24.9786 19.3422 27.5471 16.7737 30.7151 16.7737C33.8831 16.7745 36.4515 19.3422 36.4515 22.5109C36.4515 25.6789 33.8831 28.2474 30.7151 28.2466C27.5485 28.243 24.9823 25.6767 24.9786 22.5102Z" fill="#4A9A71"/>
</svg>
