<svg width="46" height="70" viewBox="0 0 46 70" fill="none" xmlns="http://www.w3.org/2000/svg">
<path d="M6.47578 47.489C6.47578 36.8786 14.5163 28.1117 24.8238 26.9583C24.0559 26.8722 23.2838 26.8288 22.511 26.8282C11.1188 26.8282 1.85023 36.0968 1.85023 47.489C1.85023 58.8813 11.1188 68.1498 22.511 68.1498C23.2838 68.1492 24.0559 68.1059 24.8238 68.0197C14.5163 66.8664 6.47578 58.0995 6.47578 47.489Z" fill="#EAEAEA"/>
<path d="M22.511 0C13.0636 0.0108411 5.40733 7.66709 5.39648 17.1145V32.883C1.90986 36.9502 -0.00480921 42.1317 9.07182e-06 47.489C9.07182e-06 59.9015 10.0991 70 22.511 70C34.9229 70 45.022 59.9015 45.022 47.489C45.0269 42.1317 43.1122 36.9502 39.6256 32.883V17.1145C39.6147 7.66709 31.9585 0.0108411 22.511 0ZM22.511 1.85022C30.9376 1.85986 37.7657 8.68796 37.7753 17.1145V30.9605C36.9087 30.1594 35.9805 29.4277 35 28.7712V17.1145C35 10.2172 29.4084 4.62555 22.511 4.62555C15.6137 4.62555 10.022 10.2172 10.022 17.1145V28.7694C9.04152 29.4259 8.11339 30.1582 7.24671 30.9587V17.1145C7.25634 8.68796 14.0845 1.85986 22.511 1.85022ZM33.1498 27.6551C26.5066 24.0854 18.5155 24.0854 11.8723 27.6551V17.1145C11.8723 11.2386 16.6351 6.47577 22.511 6.47577C28.3869 6.47577 33.1498 11.2386 33.1498 17.1145V27.6551ZM22.511 68.1498C11.1188 68.1498 1.85023 58.8812 1.85023 47.489C1.85023 36.0968 11.1188 26.8282 22.511 26.8282C33.9032 26.8282 43.1718 36.0968 43.1718 47.489C43.1718 58.8812 33.9032 68.1498 22.511 68.1498Z" fill="#999999"/>
<path d="M25.7074 63.0214C24.6552 63.2364 23.5843 63.3442 22.511 63.3436C22.0003 63.3436 21.5859 63.758 21.5859 64.2687C21.5859 64.7801 22.0003 65.1938 22.511 65.1938C23.709 65.1944 24.9045 65.074 26.0784 64.8343C26.5789 64.7319 26.9017 64.2428 26.7993 63.7423C26.6963 63.2418 26.2079 62.919 25.7074 63.0214Z" fill="#999999"/>
<path d="M28.829 62.0353C28.5176 62.1618 28.2996 62.4467 28.2592 62.7804C28.2183 63.1134 28.3616 63.4429 28.6333 63.6404C28.9049 63.838 29.2626 63.8723 29.5668 63.7314C36.0341 60.9205 40.217 54.5405 40.2158 47.489C40.2158 46.9782 39.802 46.5638 39.2907 46.5638C38.78 46.5638 38.3656 46.9782 38.3656 47.489C38.3668 53.8039 34.6206 59.5178 28.829 62.0353Z" fill="#999999"/>
<path d="M23.4361 30.7093C23.4361 30.1979 23.0218 29.7842 22.511 29.7842C21.4335 29.7842 20.3579 29.8811 19.2978 30.0751C18.9666 30.1281 18.6895 30.3564 18.5745 30.6713C18.4595 30.9869 18.5245 31.3399 18.7437 31.5934C18.963 31.8476 19.3033 31.9626 19.6315 31.8946C20.5819 31.7211 21.5456 31.6338 22.511 31.6344C23.0218 31.6344 23.4361 31.22 23.4361 30.7093Z" fill="#999999"/>
<path d="M15.6191 31.1761C9.05959 33.9412 4.79782 40.3706 4.80625 47.489C4.80625 47.9997 5.22002 48.4141 5.73136 48.4141C6.2421 48.4141 6.65647 47.9997 6.65647 47.489C6.64864 41.1138 10.4653 35.356 16.34 32.88C16.6508 32.7553 16.87 32.4728 16.9134 32.141C16.9568 31.8085 16.817 31.479 16.549 31.2791C16.2804 31.0791 15.9244 31.04 15.6191 31.1761Z" fill="#999999"/>
<path d="M22.511 57.511C24.2393 57.5087 25.6397 56.1117 25.642 54.3876V50.0898C27.3542 48.7561 28.0284 46.486 27.3221 44.4378C26.615 42.3888 24.6826 41.0132 22.511 41.0132C20.3394 41.0132 18.407 42.3888 17.7 44.4378C16.9937 46.486 17.6679 48.7561 19.3801 50.0898V54.3876C19.3824 56.1117 20.7827 57.5087 22.511 57.511ZM22.511 43.358C23.7501 43.3588 24.834 44.1892 25.155 45.3834C25.4761 46.5775 24.9532 47.8373 23.8808 48.4564C23.5177 48.6661 23.2938 49.052 23.2938 49.4706V54.3876C23.2938 54.8192 22.9437 55.1684 22.511 55.1684C22.0784 55.1684 21.7283 54.8192 21.7283 54.3876V49.4706C21.7283 49.052 21.5043 48.6661 21.1412 48.4564C20.0688 47.8373 19.546 46.5775 19.867 45.3834C20.188 44.1892 21.2719 43.3588 22.511 43.358Z" fill="#4A9A71"/>
</svg>
