<svg width="62" height="62" viewBox="0 0 62 62" fill="none" xmlns="http://www.w3.org/2000/svg">
<circle cx="31" cy="31" r="31" fill="#F2F9EF"/>
<g clip-path="url(#clip0_295_4918)">
<path d="M47 28.3335C47 28.2361 46.9893 28.1391 46.968 28.0441L45.2346 20.2201C44.9126 18.7351 44.0898 17.406 42.9041 16.4556C41.7185 15.5052 40.2421 14.9913 38.7226 15.0001H23.2773C21.7587 14.9925 20.2836 15.5069 19.0991 16.4572C17.9145 17.4075 17.0925 18.736 16.7706 20.2201L15.032 28.0441C15.0106 28.1391 14.9999 28.2361 15 28.3335V29.6668C14.9989 30.9649 15.4732 32.2185 16.3333 33.1908V40.3335C16.3354 42.1009 17.0385 43.7954 18.2883 45.0452C19.538 46.295 21.2325 46.998 23 47.0001H39C40.7674 46.998 42.4619 46.295 43.7117 45.0452C44.9615 43.7954 45.6645 42.1009 45.6666 40.3335V33.1908C46.5267 32.2185 47.001 30.9649 47 29.6668V28.3335ZM17.6666 28.4788L19.3733 20.7988C19.5667 19.9085 20.06 19.1115 20.7707 18.5414C21.4813 17.9713 22.3662 17.6625 23.2773 17.6668H24.3333V21.6668C24.3333 22.0204 24.4738 22.3595 24.7238 22.6096C24.9739 22.8596 25.313 23.0001 25.6666 23.0001C26.0203 23.0001 26.3594 22.8596 26.6094 22.6096C26.8595 22.3595 27 22.0204 27 21.6668V17.6668H35V21.6668C35 22.0204 35.1404 22.3595 35.3905 22.6096C35.6405 22.8596 35.9797 23.0001 36.3333 23.0001C36.6869 23.0001 37.0261 22.8596 37.2761 22.6096C37.5262 22.3595 37.6666 22.0204 37.6666 21.6668V17.6668H38.7226C39.6337 17.6625 40.5186 17.9713 41.2293 18.5414C41.94 19.1115 42.4332 19.9085 42.6266 20.7988L44.3333 28.4788V29.6668C44.3333 30.374 44.0524 31.0523 43.5523 31.5524C43.0522 32.0525 42.3739 32.3335 41.6666 32.3335H40.3333C39.6261 32.3335 38.9478 32.0525 38.4477 31.5524C37.9476 31.0523 37.6666 30.374 37.6666 29.6668C37.6666 29.3132 37.5262 28.974 37.2761 28.724C37.0261 28.4739 36.6869 28.3335 36.3333 28.3335C35.9797 28.3335 35.6405 28.4739 35.3905 28.724C35.1404 28.974 35 29.3132 35 29.6668C35 30.374 34.719 31.0523 34.2189 31.5524C33.7188 32.0525 33.0405 32.3335 32.3333 32.3335H29.6666C28.9594 32.3335 28.2811 32.0525 27.781 31.5524C27.2809 31.0523 27 30.374 27 29.6668C27 29.3132 26.8595 28.974 26.6094 28.724C26.3594 28.4739 26.0203 28.3335 25.6666 28.3335C25.313 28.3335 24.9739 28.4739 24.7238 28.724C24.4738 28.974 24.3333 29.3132 24.3333 29.6668C24.3333 30.374 24.0524 31.0523 23.5523 31.5524C23.0522 32.0525 22.3739 32.3335 21.6666 32.3335H20.3333C19.6261 32.3335 18.9478 32.0525 18.4477 31.5524C17.9476 31.0523 17.6666 30.374 17.6666 29.6668V28.4788ZM39 44.3335H23C21.9391 44.3335 20.9217 43.912 20.1715 43.1619C19.4214 42.4118 19 41.3943 19 40.3335V34.8308C19.4354 34.9436 19.8835 35.0005 20.3333 35.0001H21.6666C22.4237 35.0005 23.1722 34.8393 23.862 34.5273C24.5518 34.2153 25.167 33.7596 25.6666 33.1908C26.1662 33.7596 26.7815 34.2153 27.4713 34.5273C28.1611 34.8393 28.9096 35.0005 29.6666 35.0001H32.3333C33.0904 35.0005 33.8388 34.8393 34.5286 34.5273C35.2184 34.2153 35.8337 33.7596 36.3333 33.1908C36.8329 33.7596 37.4482 34.2153 38.138 34.5273C38.8278 34.8393 39.5762 35.0005 40.3333 35.0001H41.6666C42.1165 35.0005 42.5645 34.9436 43 34.8308V40.3335C43 41.3943 42.5785 42.4118 41.8284 43.1619C41.0783 43.912 40.0608 44.3335 39 44.3335Z" fill="#3D7F74"/>
</g>
<defs>
<clipPath id="clip0_295_4918">
<rect width="32" height="32" fill="white" transform="translate(15 15)"/>
</clipPath>
</defs>
</svg>
