<svg width="67" height="65" viewBox="0 0 67 65" fill="none" xmlns="http://www.w3.org/2000/svg">
<path d="M35.6615 12.1866L35.6615 3.55526C35.6615 2.69164 36.3614 1.9917 37.2251 1.9917C38.0887 1.9917 38.7886 2.69164 38.7886 3.55526L38.7886 12.186C38.7886 13.0496 38.0887 13.7496 37.2251 13.7496C36.3614 13.7496 35.6615 13.0496 35.6615 12.186L35.6615 12.1866Z" fill="#7DB968"/>
<path d="M43.3229 1.56356L43.3229 16.17C43.3229 17.0337 44.0229 17.7336 44.8865 17.7336C45.7501 17.7336 46.4501 17.0337 46.4501 16.17L46.4501 1.56356C46.4501 0.699939 45.7501 -3.05953e-08 44.8865 -6.83455e-08C44.0229 -1.06096e-07 43.3229 0.699938 43.3229 1.56356Z" fill="#4A9A71"/>
<path d="M31.1271 11.5304L31.1271 1.97006C31.1271 1.10643 30.4272 0.406494 29.5636 0.406494C28.7 0.406494 28 1.10643 28 1.97006L28 11.5304C28 12.394 28.6999 13.0939 29.5636 13.0939C30.4272 13.0939 31.1271 12.394 31.1271 11.5304Z" fill="#4A9A71"/>
<path d="M7.60082 60.7553V32.7088V30.4065H2V63.4065H58V60.7553H7.60082Z" fill="#EAEAEA"/>
<path d="M6.786 25.0866L6.786 28.9413L2.05967 28.9413C0.922558 28.9413 -1.57251e-06 29.6939 -1.53049e-06 30.6215L-7.61117e-08 62.7264C-3.40587e-08 63.6547 0.92256 64.4065 2.05967 64.4065L58.2014 64.4065C59.3385 64.4065 60.2611 63.6547 60.2611 62.7264C60.2611 61.7988 59.3385 62.0399 58.2014 62.0399L2.90115 62.0399L2.90115 31.3079L57.3137 31.3079L57.3137 62.7264C57.3137 63.6547 57.0172 64.4065 58.1552 64.4065C59.2923 64.4065 60.2149 63.6547 60.2149 62.7264L60.2149 58.6872L64.9403 58.6872C66.0783 58.6872 67 57.9346 67 57.007L67 25.0866C67 24.1583 66.0783 23.4065 64.9403 23.4065L8.84567 23.4065C7.70766 23.4065 6.786 24.1583 6.786 25.0866ZM64.0988 25.7731L64.0988 56.3206L60.2149 56.3206L60.2149 30.6215C60.2149 29.6939 59.2923 28.9413 58.1552 28.9413L9.68715 28.9413L9.68715 25.7731L64.0988 25.7731Z" fill="#999999"/>
<path d="M39.8331 45.9167C39.8331 40.8811 35.7507 36.7987 30.7151 36.7987C25.6787 36.7994 21.5971 40.8811 21.5971 45.9174C21.5971 50.953 25.6794 55.0354 30.7151 55.0347C35.7485 55.0295 39.8272 50.9501 39.8331 45.9167ZM24.9786 45.9167C24.9786 42.7487 27.5471 40.1802 30.7151 40.1802C33.8831 40.181 36.4515 42.7487 36.4515 45.9174C36.4515 49.0854 33.8831 51.6539 30.7151 51.6531C27.5485 51.6495 24.9823 49.0832 24.9786 45.9167Z" fill="#4A9A71"/>
</svg>
