<svg width="62" height="62" viewBox="0 0 62 62" fill="none" xmlns="http://www.w3.org/2000/svg">
<circle cx="31" cy="31" r="31" fill="#F2F9EF"/>
<path d="M42.05 17.7688H19.95C17.2625 17.7688 15.0812 19.95 15.0812 22.6375V25.1313H17.65V22.6375C17.65 21.3688 18.6812 20.3375 19.95 20.3375H42.05C43.3187 20.3375 44.35 21.3688 44.35 22.6375V26.1313H38.1687C35.4812 26.1313 33.3 28.3125 33.3 31C33.3 33.6875 35.4875 35.8688 38.1687 35.8688H44.35V39.3625C44.35 40.6313 43.3187 41.6625 42.05 41.6625H19.95C18.6812 41.6625 17.65 40.6313 17.65 39.3625V35.0563H15.0812V39.3625C15.0812 42.05 17.2625 44.2313 19.95 44.2313H42.05C44.7375 44.2313 46.9187 42.05 46.9187 39.3625V22.6375C46.9187 19.95 44.7375 17.7688 42.05 17.7688ZM44.35 33.3H38.1687C36.9 33.3 35.8687 32.2688 35.8687 31C35.8687 29.7313 36.9 28.7 38.1687 28.7H44.35V33.3Z" fill="#3D7F74"/>
<path d="M39.6124 30.075H38.3812C37.8687 30.075 37.4562 30.4875 37.4562 31C37.4562 31.5125 37.8687 31.925 38.3812 31.925H39.6124C40.1249 31.925 40.5374 31.5125 40.5374 31C40.5374 30.4875 40.1249 30.075 39.6124 30.075Z" fill="#3D7F74"/>
<path d="M28.525 31.0625V31.1C28.5125 31.4 28.3875 31.6875 28.1625 31.9187L28.1 31.9812L27.9375 32.1437L23.7437 36.3437C23.2562 36.8312 22.4625 36.8312 21.975 36.3437L21.925 36.2937C21.4375 35.8062 21.4375 35.0125 21.925 34.525L24.1 32.35H16.3625C15.65 32.35 15.0812 31.775 15.0812 31.0687C15.0812 30.7125 15.225 30.3937 15.4562 30.1625C15.6875 29.9312 16.0125 29.7875 16.3625 29.7875H24.15L21.9187 27.5562C21.4312 27.0687 21.4312 26.275 21.9187 25.7875L21.9687 25.7375C22.4562 25.25 23.25 25.25 23.7375 25.7375L28.1 30.1L28.1625 30.1625C28.4125 30.4 28.5312 30.7312 28.525 31.0625Z" fill="#3D7F74"/>
<path d="M28.2938 28.8999L28.2313 28.8374C28.2376 28.8437 28.2376 28.8437 28.2438 28.8499L28.2938 28.8999Z" fill="#3D7F74"/>
<path d="M28.6562 29.8501C28.6437 30.1876 28.5062 30.4938 28.2812 30.7188C28.2187 30.7813 28.1437 30.8438 28.0687 30.8876L28.2312 30.7251L28.2937 30.6626C28.5187 30.4376 28.6437 30.1438 28.6562 29.8501Z" fill="#3D7F74"/>
<path d="M17.6501 25.3187V26.8562C17.6501 27.5624 17.0751 28.1374 16.3688 28.1374C15.6626 28.1374 15.0876 27.5624 15.0876 26.8562V25.3187C15.0876 24.6124 15.6626 24.0374 16.3688 24.0374C17.0751 24.0312 17.6501 24.6062 17.6501 25.3187Z" fill="#3D7F74"/>
<path d="M17.6501 35.1311V35.9811C17.6501 36.6874 17.0751 37.2624 16.3688 37.2624C15.6626 37.2624 15.0876 36.6874 15.0876 35.9811V35.1311C15.0876 34.4249 15.6626 33.8499 16.3688 33.8499C17.0751 33.8437 17.6501 34.4187 17.6501 35.1311Z" fill="#3D7F74"/>
</svg>
