<svg width="61" height="58" viewBox="0 0 61 58" fill="none" xmlns="http://www.w3.org/2000/svg">
<path d="M49.8373 41.956C49.5348 42.0379 49.2736 42.2279 49.1028 42.4898L46.2055 46.9251L52.684 45.1722L52.4876 41.2386L49.8373 41.956Z" fill="#D4E1F4"/>
<path d="M36.3458 46.6347C36.0533 46.5237 35.7302 46.5237 35.4377 46.6347L27.3899 49.7007L22.6814 42.4898C22.5099 42.2279 22.2487 42.0379 21.9462 41.9561L13.6337 39.7064L14.0621 31.1049C14.0778 30.7918 13.9781 30.4843 13.7817 30.2409L8.37855 23.534L13.7817 16.8277C13.9781 16.5836 14.0778 16.2769 14.0621 15.9637L13.8294 11.2958L8.16789 12.828L8.59633 21.4295C8.61199 21.7427 8.51235 22.0494 8.31593 22.2935L2.91278 28.9998L8.31593 35.7067C8.51235 35.9501 8.61199 36.2576 8.59633 36.5707L8.16789 45.1722L16.4804 47.4218C16.7829 47.5037 17.0441 47.6937 17.2156 47.9556L21.9241 55.1664L29.9719 52.1005C30.2644 51.9895 30.5875 51.9895 30.88 52.1005L38.9278 55.1664L42.8748 49.1221L36.3458 46.6347Z" fill="#EAEAEA"/>
<path d="M23.3753 26.429C20.4581 26.429 18.0931 24.0648 18.0931 21.1475C18.0931 18.2303 20.4581 15.8654 23.3753 15.8654C26.2925 15.8654 28.6568 18.2303 28.6568 21.1475C28.6539 24.0633 26.2911 26.4262 23.3753 26.429ZM23.3753 18.4161C21.8672 18.4161 20.6438 19.6395 20.6438 21.1475C20.6438 22.6556 21.8672 23.8783 23.3753 23.8783C24.8834 23.8783 26.1061 22.6556 26.1061 21.1475C26.1046 19.6395 24.8827 18.4182 23.3753 18.4161Z" fill="#4A9A71"/>
<path d="M37.1564 42.4548C34.2399 42.4548 31.875 40.0898 31.875 37.1726C31.875 34.2554 34.2399 31.8911 37.1572 31.8911C40.0737 31.8911 42.4386 34.2561 42.4386 37.1726C42.4351 40.0884 40.0722 42.4512 37.1564 42.4548ZM37.1564 34.4418C35.6484 34.4418 34.4257 35.6645 34.4257 37.1733C34.4257 38.6814 35.6484 39.9041 37.1572 39.9041C38.6652 39.9041 39.8879 38.6814 39.8879 37.1726C39.8865 35.6652 38.6645 34.4432 37.1564 34.4418Z" fill="#4A9A71"/>
<path d="M6.02427 36.9286L5.56879 46.0709C5.53961 46.6702 5.93104 47.2089 6.50964 47.3655L15.346 49.7568L20.3506 57.4217C20.6787 57.9241 21.3121 58.1298 21.8729 57.9163L30.426 54.6568L38.9798 57.9156C39.5399 58.1291 40.1733 57.9234 40.5013 57.4217L45.5059 49.7575L54.3423 47.3662C54.9216 47.2096 55.313 46.6709 55.2831 46.0717L54.8276 36.9293L60.5703 29.801C60.9468 29.3341 60.9468 28.6673 60.5703 28.2004L54.8276 21.0721L55.2831 11.9298C55.3123 11.3313 54.9209 10.7925 54.3423 10.6359L45.5059 8.24466L40.5013 0.57763C40.1733 0.0758888 39.5399 -0.12979 38.979 0.0837174L30.426 3.34325L21.8722 0.0844291C21.3121 -0.129078 20.6787 0.0766005 20.3506 0.57763L15.346 8.24252L6.50964 10.6338C5.93104 10.7904 5.53961 11.3291 5.56879 11.9277L6.02427 21.07L0.282363 28.1997C-0.0941209 28.6666 -0.0941209 29.3334 0.282363 29.8003L6.02427 36.9286ZM8.31591 22.2934C8.51234 22.0493 8.61197 21.7426 8.59632 21.4294L8.16788 12.8279L16.4804 10.5783C16.7829 10.4964 17.0441 10.3064 17.2156 10.0445L21.9241 2.83368L29.9719 5.89964C30.2644 6.01067 30.5875 6.01067 30.88 5.89964L38.9278 2.83368L43.637 10.0445C43.8079 10.3064 44.069 10.4964 44.3715 10.5783L52.6848 12.8279L52.2556 21.4294C52.2399 21.7426 52.3396 22.0493 52.536 22.2934L57.9392 28.9997L52.536 35.7066C52.3396 35.95 52.2399 36.2575 52.2556 36.5706L52.6848 45.1721L44.3715 47.4217C44.069 47.5036 43.8079 47.6936 43.637 47.9555L38.9278 55.1663L30.88 52.1004C30.5875 51.9893 30.2644 51.9893 29.9719 52.1004L21.9241 55.1663L17.2156 47.9555C17.0441 47.6936 16.7829 47.5036 16.4804 47.4217L8.16788 45.1721L8.59632 36.5706C8.61197 36.2575 8.51234 35.95 8.31591 35.7066L2.91277 28.9997L8.31591 22.2934Z" fill="#999999"/>
<path d="M20.7151 43.8905C21.3051 44.2756 22.0957 44.109 22.4801 43.519L40.5087 15.8748C40.7585 15.4933 40.7855 15.0072 40.5798 14.6001C40.3734 14.193 39.9656 13.9269 39.5102 13.9027C39.0547 13.8777 38.6205 14.0991 38.3722 14.4813L20.3436 42.1255C19.9585 42.7155 20.1251 43.5055 20.7151 43.8905Z" fill="#999999"/>
</svg>
